<svg xmlns="http://www.w3.org/2000/svg" width="220.159" height="80.918" viewBox="0 0 220.159 80.918"><g transform="translate(-30.892 -149.508)"><path d="M76.719,153.268l-2.908,2.141a.264.264,0,0,1-.37-.057L71.3,152.444a.266.266,0,0,1,.057-.37l2.909-2.141a.265.265,0,0,1,.37.056l2.14,2.909a.265.265,0,0,1-.056.37Z" transform="translate(-15.436 -0.143)" fill="#313131" fill-rule="evenodd"/><path d="M85.442,196.127l-3.935,2.9a.361.361,0,0,1-.5-.077l-2.9-3.935a.361.361,0,0,1,.077-.5l3.935-2.9a.361.361,0,0,1,.5.077l2.9,3.935a.36.36,0,0,1-.077.5Z" transform="translate(-18.033 -16.079)" fill="#26a2e7" fill-rule="evenodd"/><path d="M70.158,196.373l-4.274,3.146a.392.392,0,0,1-.546-.083l-3.146-4.275a.392.392,0,0,1,.083-.545l4.274-3.146a.392.392,0,0,1,.546.083l3.146,4.275a.39.39,0,0,1-.083.545Z" transform="translate(-11.943 -16.022)" fill="#aadddc" fill-rule="evenodd"/><path d="M77.448,182.754l-4.566,3.36a.417.417,0,0,1-.582-.089l-3.359-4.565a.416.416,0,0,1,.088-.582l4.565-3.36a.418.418,0,0,1,.582.089l3.36,4.565a.418.418,0,0,1-.088.582Z" transform="translate(-14.522 -10.683)" fill="#313131" fill-rule="evenodd"/><path d="M60.72,184.171l-5.277,3.883a.486.486,0,0,1-.673-.1l-3.883-5.277a.485.485,0,0,1,.1-.673l5.277-3.883a.485.485,0,0,1,.673.1l3.883,5.277a.484.484,0,0,1-.1.673Z" transform="translate(-7.613 -10.908)" fill="#26a2e7" fill-rule="evenodd"/><path d="M76.96,206.814l-2.484,1.828a.227.227,0,0,1-.317-.048l-1.828-2.484a.227.227,0,0,1,.048-.317l2.484-1.828a.229.229,0,0,1,.317.049l1.828,2.484a.228.228,0,0,1-.048.317Z" transform="translate(-15.833 -20.812)" fill="#313131" fill-rule="evenodd"/><path d="M67.836,209.987l-1.766,1.3a.161.161,0,0,1-.225-.035l-1.3-1.766a.16.16,0,0,1,.035-.225l1.767-1.3a.161.161,0,0,1,.225.035l1.3,1.767a.162.162,0,0,1-.035.225Z" transform="translate(-12.86 -22.346)" fill="#26a2e7" fill-rule="evenodd"/><path d="M67.622,175.156l-2.246,1.654a.2.2,0,0,1-.286-.043l-1.653-2.247a.2.2,0,0,1,.043-.286l2.246-1.653a.205.205,0,0,1,.287.044l1.653,2.246a.2.2,0,0,1-.044.286Z" transform="translate(-12.433 -8.81)" fill="#aadddc" fill-rule="evenodd"/><path d="M74.313,166.593l-3.557,2.618a.322.322,0,0,1-.452-.069l-2.618-3.557a.323.323,0,0,1,.069-.452l3.557-2.618a.324.324,0,0,1,.453.069l2.618,3.557a.324.324,0,0,1-.069.453Z" transform="translate(-14.049 -4.951)" fill="#26a2e7" fill-rule="evenodd"/><path d="M86.1,166.747l-2.47,1.817a.225.225,0,0,1-.316-.048L81.5,166.047a.224.224,0,0,1,.048-.316l2.469-1.818a.225.225,0,0,1,.316.048l1.817,2.47a.226.226,0,0,1-.048.316Z" transform="translate(-19.34 -5.493)" fill="#aadddc" fill-rule="evenodd"/><path d="M46.834,179.165l-2.884,2.123a.264.264,0,0,1-.368-.056l-2.124-2.885a.264.264,0,0,1,.056-.368l2.885-2.123a.264.264,0,0,1,.368.056L46.89,178.8a.263.263,0,0,1-.056.367Z" transform="translate(-4.022 -10.059)" fill="#aadddc" fill-rule="evenodd"/><path d="M55.424,169.475l-3.935,2.9a.361.361,0,0,1-.5-.077l-2.9-3.935a.361.361,0,0,1,.077-.5l3.935-2.9a.359.359,0,0,1,.5.076l2.9,3.935a.36.36,0,0,1-.077.5Z" transform="translate(-6.552 -5.884)" fill="#313131" fill-rule="evenodd"/><path d="M38.832,169.376,36.619,171a.2.2,0,0,1-.282-.043l-1.629-2.213a.2.2,0,0,1,.043-.282l2.213-1.629a.2.2,0,0,1,.282.043l1.629,2.214a.2.2,0,0,1-.043.282Z" transform="translate(-1.445 -6.613)" fill="#313131" fill-rule="evenodd"/><path d="M86.582,206.953l-1.767,1.3a.161.161,0,0,1-.225-.035l-1.3-1.766a.161.161,0,0,1,.034-.225l1.767-1.3a.161.161,0,0,1,.225.034l1.3,1.767a.162.162,0,0,1-.034.225Z" transform="translate(-20.03 -21.186)" fill="#aadddc" fill-rule="evenodd"/><path d="M63.641,156.554l-4.566,3.36a.418.418,0,0,1-.582-.088l-3.36-4.566a.417.417,0,0,1,.089-.582l4.565-3.36a.417.417,0,0,1,.582.089l3.36,4.565a.417.417,0,0,1-.088.582Z" transform="translate(-9.241 -0.662)" fill="#aadddc" fill-rule="evenodd"/><path d="M35.8,179.321l-2.61,1.921a.239.239,0,0,1-.333-.051l-1.921-2.61a.238.238,0,0,1,.051-.333l2.61-1.92a.239.239,0,0,1,.333.051l1.92,2.61a.238.238,0,0,1-.051.333Z" transform="translate(0 -10.241)" fill="#26a2e7" fill-rule="evenodd"/><path d="M93.64,192.441l-1.767,1.3a.16.16,0,0,1-.225-.034l-1.3-1.766a.161.161,0,0,1,.035-.225l1.766-1.3a.161.161,0,0,1,.225.035l1.3,1.767a.161.161,0,0,1-.035.225Z" transform="translate(-22.73 -15.635)" fill="#313131" fill-rule="evenodd"/><path d="M50.125,152.085l-2.213,1.629a.2.2,0,0,1-.282-.043L46,151.459a.2.2,0,0,1,.043-.282l2.213-1.63a.2.2,0,0,1,.282.043l1.629,2.214a.2.2,0,0,1-.043.282Z" transform="translate(-5.764)" fill="#26a2e7" fill-rule="evenodd"/><path d="M106.746,167.106a2.269,2.269,0,0,0-1.253-2c-.191-.1-.377-.208-.573-.293s-.382-.118-.573-.18c-.056-.022-.124-.056-.034-.123H91.377a1.052,1.052,0,0,0-1.052,1.052V173.2a1.052,1.052,0,0,0,1.054,1.052q5.55-.01,11.1-.027a4.842,4.842,0,0,1,.64.034.668.668,0,0,1,.612.573,3.7,3.7,0,0,1,.051.786q-.008,5.983-.011,11.966.008,16.709.011,33.43a3.386,3.386,0,0,1-.044.826.708.708,0,0,1-.691.635,4.623,4.623,0,0,1-.562.017c-5.3-.012-10.589-.04-15.887-.034h-.354v4.584h.017a.033.033,0,0,1,.022-.006,2.683,2.683,0,0,1,2.753,2.579,2.763,2.763,0,0,1-2.775,2.915h-.017v2.292h.017c.27,0,.534-.006.8-.006,5.4-.028,10.792-.028,16.184-.04a7.063,7.063,0,0,0,1.09-.078,2.586,2.586,0,0,0,2.337-2.219,6.77,6.77,0,0,0,.118-1.388q0-31.4.006-62.782C106.8,167.91,106.762,167.511,106.746,167.106Z" transform="translate(-21.173 -5.739)" fill="#2f99fe"/><path d="M73.51,242c.012,0,.017,0,.023.006h.017v-4.584H73.2c-5.292-.006-10.589.022-15.881.034a4.679,4.679,0,0,1-.567-.017.708.708,0,0,1-.691-.635,3.386,3.386,0,0,1-.044-.826q.007-15.838.011-31.672a.68.68,0,0,0-.68-.68H53.686a.68.68,0,0,0-.68.68v41.75a6.775,6.775,0,0,0,.124,1.388,2.58,2.58,0,0,0,2.331,2.219,7.063,7.063,0,0,0,1.09.078c5.393.011,10.792.011,16.184.04.264,0,.534.006.8.006h.017V247.5h-.017a2.765,2.765,0,0,1-2.775-2.915A2.689,2.689,0,0,1,73.51,242Z" transform="translate(-8.458 -20.701)" fill="#2f99fe"/><path d="M363.173,233.54a2.834,2.834,0,0,0,.215.87,14.483,14.483,0,0,0,2.392,4.411c.49.637,1.013,1.247,1.562,1.835.2.21.2.216,0,.419a5.3,5.3,0,0,1-1.123.88c-1.042.628-2.071,1.279-3.144,1.853a2.187,2.187,0,0,1-1.247.354c-.025-.057-.048-.116-.077-.172q-2.078-3.957-4.156-7.914-2.349-4.475-4.7-8.951c-.613-1.17-1.216-2.343-1.824-3.515.085-.052.167-.11.257-.154,1.291-.638,2.579-1.284,3.905-1.848.61-.259,1.223-.514,1.834-.77a3.183,3.183,0,0,1,.517.862c.774,1.551,1.6,3.075,2.419,4.6a5.653,5.653,0,0,0,3.5,2.834c2.991.9,5.991,1.769,9.024,2.521a1.857,1.857,0,0,1,.916.406c.04.04.058-.012.076-.04V233c-.078-.087-.11,0-.118.046a5.979,5.979,0,0,1-.48,1.262,2.87,2.87,0,0,0-.213.561,3,3,0,0,1-.534,1.107c-.664.991-1.407,1.925-2.123,2.878-.2.272-.364.3-.674.127a18.107,18.107,0,0,1-5.937-5.183,1.017,1.017,0,0,0-.233-.29c-.017-.033-.021-.1-.07-.072C363.108,233.458,363.116,233.521,363.173,233.54Z" transform="translate(-122.47 -27.284)" fill="#aadddc"/><path d="M164.919,205.614c.12-.158.211-.274.3-.394q6.36-8.739,12.713-17.483a.672.672,0,0,1,.616-.322c2.779.012,5.559.007,8.338.007.449,0,.411-.025.411.406v41.51c0,.025,0,.051,0,.075,0,.324,0,.327-.334.327h-7.282c-.391,0-.359.03-.359-.373V199.121c-.179.078-.232.212-.309.316q-6.623,8.827-13.237,17.66a.654.654,0,0,1-.65.329,3.421,3.421,0,0,0-.716,0,.706.706,0,0,1-.714-.348c-1.656-2.294-3.331-4.574-5-6.858l-7.859-10.751c-.088-.122-.178-.241-.282-.382-.116.131-.073.272-.073.4q-.006,3.113,0,6.227v23.66c0,.369,0,.371-.368.371h-7.244c-.063,0-.126,0-.189,0-.125.007-.188-.041-.18-.174.006-.088,0-.177,0-.264v-41.51c0-.369-.044-.37.367-.37,2.829,0,5.659,0,8.489-.007a.606.606,0,0,1,.549.3q6.331,8.713,12.669,17.421C164.674,205.283,164.779,205.424,164.919,205.614Z" transform="translate(-42.688 -14.5)" fill="#00a3f7"/><path d="M268.619,221.7a15.188,15.188,0,0,1-1.336,1.227,21.41,21.41,0,0,1-8.8,4.384,28.5,28.5,0,0,1-13.254-.215,20.1,20.1,0,0,1-7.657-3.845,19.4,19.4,0,0,1-5.634-7.674,23.685,23.685,0,0,1-1.6-6.068,25.534,25.534,0,0,1-.205-4.781,22.522,22.522,0,0,1,4.976-13.335,19.572,19.572,0,0,1,8.126-5.887,23.516,23.516,0,0,1,6.623-1.532,27.452,27.452,0,0,1,4.031-.081,21.408,21.408,0,0,1,8.422,2.26,22.926,22.926,0,0,1,5.539,3.947c.228.218.253.2-.015.457q-2.292,2.215-4.587,4.429c-.159.153-.3.424-.5.408-.172-.014-.329-.249-.489-.389a14.05,14.05,0,0,0-7.189-3.325,16.423,16.423,0,0,0-7.282.43,12.927,12.927,0,0,0-8.9,8.464,16.955,16.955,0,0,0,.676,12.663,12.311,12.311,0,0,0,8.039,6.623,16.656,16.656,0,0,0,6.349.566,15.282,15.282,0,0,0,9.114-4.1c.027-.026.059-.046.13-.1Z" transform="translate(-76.195 -13.134)" fill="#00a2f7"/><path d="M294.676,220.806c.042-.279,18.058-40.542,18.439-41.208.11.059.127.179.171.275q1.959,4.287,3.919,8.572a.7.7,0,0,1,0,.637q-3.473,7.944-6.933,15.895a.717.717,0,0,0-.124.4.845.845,0,0,0,.437.041c2.881,0,5.761.017,8.641-.006a1.8,1.8,0,0,1,2,1.395c.432,1.233.9,2.453,1.349,3.68a2.273,2.273,0,0,1,.178.69,1.585,1.585,0,0,1-1.494,1.671c-.15.012-.3.007-.452.007H307.41a1.534,1.534,0,0,1-.226,0c-.237-.036-.353.072-.449.287-.819,1.822-1.649,3.64-2.476,5.459-.3.664-.61,1.324-.9,1.993a.365.365,0,0,1-.393.258c-2.691-.008-5.383-.006-8.074-.006C294.819,220.838,294.741,220.858,294.676,220.806Z" transform="translate(-100.896 -11.509)" fill="#00a2f7"/><path d="M346.99,225.327c.608,1.171,1.212,2.345,1.824,3.515q2.344,4.478,4.7,8.951,2.078,3.958,4.156,7.914c.029.056.051.114.077.172a9.78,9.78,0,0,1-2.679.935,1.275,1.275,0,0,1-.052-.476c-.048-.929-.03-1.86-.119-2.787a10.689,10.689,0,0,0-.653-2.7c-.244-.66-.522-1.306-.787-1.957-.035-.087-.045-.2-.174-.238a3.849,3.849,0,0,0,.1.931,44.837,44.837,0,0,1,.4,6.316c0,.377-.03.754-.027,1.131a.278.278,0,0,1-.242.312,19.718,19.718,0,0,1-2.864.645c-1.218.177-2.437.343-3.656.513a.412.412,0,0,1-.1-.017,2.12,2.12,0,0,1,.085-.651c.1-.53.232-1.055.333-1.585a7.082,7.082,0,0,0-.1-2.807,6.5,6.5,0,0,0-.393-1.381c-.03.312-.062.624-.09.936a19.155,19.155,0,0,1-.975,4.518c-.291.853-.476,1.047-1.417.956-1.076-.1-2.15-.2-3.215-.394-.861-.154-.816-.488-.613-1.029.66-1.765,1.307-3.536,1.835-5.343.338-1.155.776-2.282,1-3.469a6.179,6.179,0,0,0-.161-3.2c-.276-.821-.471-1.668-.761-2.485a10.148,10.148,0,0,0-.4-.978,1.023,1.023,0,0,1-.11-.279,11.457,11.457,0,0,0-.635-2.047,3.308,3.308,0,0,1-.3-1.236,1.072,1.072,0,0,0,.346-.141c1.225-.574,2.447-1.157,3.675-1.722A21.319,21.319,0,0,1,346.99,225.327Zm6.26,13.139c-.007.009-.02.018-.019.025a.393.393,0,0,0,.019.057c.008-.007.023-.017.022-.023A.362.362,0,0,0,353.249,238.466Z" transform="translate(-118.381 -29)" fill="#00a2f7"/><path d="M342.912,209.312a21.316,21.316,0,0,0-1.975.824c-1.229.566-2.45,1.148-3.675,1.722a1.072,1.072,0,0,1-.346.141,2.235,2.235,0,0,1-.6-1.387,6.4,6.4,0,0,1,.644-4.093c.124-.233.241-.47.359-.707a1.58,1.58,0,0,1,.526-.582,1.583,1.583,0,0,0,.579-2.058c-.052-.141-.106-.283-.171-.419-.319-.67-.643-1.337-.963-2.006q-1.245-2.6-2.485-5.208-1.129-2.386-2.24-4.781c-.617-1.321-1.2-2.66-1.856-3.96a14.289,14.289,0,0,0-.834-1.678c-.235-.344-.185-.49.19-.685.333-.174.68-.324,1.026-.475a6.852,6.852,0,0,1,.995-.446c.414-.109.53-.087.748.283.358.608.605,1.271.921,1.9.271.538.5,1.1.761,1.641.752,1.591,1.511,3.18,2.263,4.771q1.208,2.557,2.408,5.118,1.137,2.424,2.275,4.847a4.424,4.424,0,0,0,.207.4.7.7,0,0,0,.651.376c.126,0,.253.007.377-.009a5.476,5.476,0,0,1,3.809,1,8.377,8.377,0,0,1,2.289,2.422.563.563,0,0,1,.119.274c-.611.256-1.224.511-1.834.77-1.326.564-2.615,1.209-3.905,1.848C343.079,209.2,343,209.26,342.912,209.312Z" transform="translate(-114.304 -12.985)" fill="#313131"/><path d="M191.556,265.023a.286.286,0,0,1,.242.282.235.235,0,0,1-.283.219.218.218,0,0,1-.222-.243A.27.27,0,0,1,191.556,265.023Z" transform="translate(-61.353 -44.184)" fill="#2e2e2e"/><path d="M370.633,241.341c-.057-.02-.065-.083-.033-.1.049-.028.054.038.07.072Z" transform="translate(-129.929 -35.084)"/><path d="M361.2,246.6a.357.357,0,0,1,.021.06c0,.006-.014.015-.022.023a.391.391,0,0,1-.019-.057C361.183,246.623,361.2,246.614,361.2,246.6Z" transform="translate(-126.335 -37.139)"/><text transform="translate(99.802 227.426)" fill="#2e2e2e" font-size="10" font-family="SegoeUI, Segoe UI" letter-spacing="0.35em"><tspan x="0" y="0">My Cleaning App</tspan></text></g></svg>